<svg xmlns="http://www.w3.org/2000/svg"
    width="2752"
    height="1902"
    >
<title>bug.veccalc</title>

<!--
      **  c:\bin\vecCalc.exe **

      input file: I:\usr\NIK\dev\vecCalc\example\bug.veccalc

      margin 152.00
      minX -1500.00 - maxX 1100.00 : 2600.00
      minY -750.00 - MaxY 1000.00 : 1750.00


-->

<g
   transform="translate(1576,1076)">
<circle title="O (0.00,0.00)" fill="red" cx="0" cy="-0" r="14"/><text x="28" y="-28" font-size="58px">O</text>
<circle title="A (100.00,1000.00)" fill="red" cx="100" cy="-1000" r="14"/><text x="128" y="-1028" font-size="58px">A</text>
<circle title="A' (200.00,200.00)" fill="red" cx="200" cy="-200" r="14"/><text x="228" y="-228" font-size="58px">A'</text>
<circle title="A&#x0022; (400.00,400.00)" fill="red" cx="400" cy="-400" r="14"/><text x="428" y="-428" font-size="58px">A"</text>
<path title="A_B" stroke="black"  d="M100.00 -1000.00 200.00 -200.00"/>
<path title="a-b" stroke="black"  d="M800.00 -450.00 0.00 -350.00"/>
<circle title="P (-500.00,-500.00)" fill="red" cx="-500" cy="500" r="14"/><text x="-472" y="472" font-size="58px">P</text>
<circle title="Q (-500.00,500.00)" fill="red" cx="-500" cy="-500" r="14"/><text x="-472" y="-528" font-size="58px">Q</text>
<circle title="R (500.00,500.00)" fill="red" cx="500" cy="-500" r="14"/><text x="528" y="-528" font-size="58px">R</text>
<circle title="S (500.00,-500.00)" fill="red" cx="500" cy="500" r="14"/><text x="528" y="472" font-size="58px">S</text>
<circle title="Z (750.00,0.00)" fill="red" cx="750" cy="-0" r="14"/><text x="778" y="-28" font-size="58px">Z</text>
<path title="ZS" stroke="black"  d="M750.00 -0.00 500.00 500.00"/>
<circle title="SZbis (625.00,-250.00)" fill="red" cx="625" cy="250" r="14"/><text x="653" y="222" font-size="58px">SZbis</text>
<path title="PQ" stroke="black"  d="M-500.00 500.00 -500.00 -500.00"/>
<path title="SP_produced" stroke="black" stroke-dasharray="14, 14" d="M-1100.00 500.00 1100.00 500.00"/>
<path title="QR_shifted" stroke="black" stroke-dasharray="14, 14" d="M-1500.00 -500.00 -500.00 -500.00"/>
<path title="RS_produced" stroke="black" stroke-dasharray="14, 14" d="M500.00 -750.00 500.00 750.00"/>
<path title="PR_produced" stroke="black" stroke-dasharray="14, 14" d="M-323.22 323.22 323.22 -323.22"/>
<path title="QS_produced" stroke="black" stroke-dasharray="14, 14" d="M-323.22 -323.22 323.22 323.22"/>
<path title="angle &#x03B8;" fill="none" stroke="black" stroke-dasharray="14, 14" d="M551.88 396.25 A 116.00 116.00 0 0,0  417.98 417.98"/>
    <text x="472" y="328" font-size="58px">&#x03B8;</text>
<path title="angle a" fill="none" stroke="black" stroke-dasharray="14, 14" d="M-417.98 417.98 A 116.00 116.00 0 0,0  -500.00 384.00"/>
    <text x="-433" y="339" font-size="58px">a</text>
<path title="angle b" fill="none" stroke="black" stroke-dasharray="14, 14" d="M-384.00 500.00 A 116.00 116.00 0 0,0  -500.00 384.00"/>
    <text x="-377" y="377" font-size="58px">b</text>
</g>
</svg>
