<svg xmlns="http://www.w3.org/2000/svg"
    width="641"
    height="951"
    >
<title>example.veccalc</title>

<!--
      **  vecCalc **

      input file: example.veccalc

      margin 110.60
      minX -60.00 - maxX 470.00 : 530.00
      minY 0.00 - MaxY 840.00 : 840.00


-->

<g
   transform="translate(115,895)">
<circle title="O (0.00,0.00)" fill="red" cx="0" cy="-0" r="3"/><text x="6" y="-6" font-size="15px">O</text>
    <!-- var Ay: 160.00 -->
<circle title="A (320.00,160.00)" fill="red" cx="320" cy="-160" r="3"/><text x="326" y="-166" font-size="15px">A</text>
<circle title="B (400.00,600.00)" fill="red" cx="400" cy="-600" r="3"/><text x="406" y="-606" font-size="15px">B</text>
<circle title="C (180.00,640.00)" fill="red" cx="180" cy="-640" r="3"/><text x="186" y="-646" font-size="15px">C</text>
<circle title="D (115.00,360.00)" fill="red" cx="115" cy="-360" r="3"/><text x="121" y="-366" font-size="15px">D</text>
<path title="AB" stroke="black"  d="M320.00 -160.00 400.00 -600.00"/>
<path title="BC" stroke="black"  d="M400.00 -600.00 180.00 -640.00"/>
<path title="CD" stroke="black"  d="M180.00 -640.00 115.00 -360.00"/>
<path title="DA" stroke="black"  d="M115.00 -360.00 320.00 -160.00"/>
<path title="AC" stroke="blue"  d="M320.00 -160.00 180.00 -640.00"/>
<path title="BD" stroke="blue"  d="M400.00 -600.00 115.00 -360.00"/>
<path title="leftPara" stroke="blue" stroke-dasharray="3, 3" d="M470.00 -360.00 330.00 -840.00"/>
<path title="Dext" stroke="blue" stroke-dasharray="3, 3" d="M157.00 -216.00 17.00 -696.00"/>
<circle title="P (290.00,620.00)" fill="red" cx="290" cy="-620" r="3"/><text x="296" y="-626" font-size="15px">P</text>
<circle title="Q (147.50,500.00)" fill="red" cx="148" cy="-500" r="3"/><text x="154" y="-506" font-size="15px">Q</text>
<circle title="R (250.00,400.00)" fill="red" cx="250" cy="-400" r="3"/><text x="256" y="-406" font-size="15px">R</text>
<path title="BR" stroke="magenta" stroke-dasharray="3, 3" d="M400.00 -600.00 250.00 -400.00"/>
<path title="AP" stroke="magenta" stroke-dasharray="3, 3" d="M320.00 -160.00 290.00 -620.00"/>
<path title="DR" stroke="magenta" stroke-dasharray="3, 3" d="M115.00 -360.00 250.00 -400.00"/>
<path title="AQ" stroke="magenta" stroke-dasharray="3, 3" d="M320.00 -160.00 147.50 -500.00"/>
<circle title="I (232.75,459.15)" fill="red" cx="233" cy="-459" r="3"/><text x="239" y="-465" font-size="15px">I</text>
<circle title="X (300.00,466.67)" fill="red" cx="300" cy="-467" r="3"/><text x="306" y="-473" font-size="15px">X</text>
<circle title="Y (205.00,386.67)" fill="red" cx="205" cy="-387" r="3"/><text x="211" y="-393" font-size="15px">Y</text>
<path title="perpAC" stroke="magenta" stroke-dasharray="3, 3" d="M-60.00 -570.00 420.00 -710.00"/>
<circle title="B' (372.00,696.00)" fill="red" cx="372" cy="-696" r="3"/><text x="378" y="-702" font-size="15px">B'</text>
<circle title="D' (44.83,600.58)" fill="red" cx="45" cy="-601" r="3"/><text x="51" y="-607" font-size="15px">D'</text>
<path title="angle &#952;" fill="none" stroke="black"  d="M209.80 -439.83 A 30.00 30.00 0 0,0  241.15 -430.35"/>
    <text x="220" y="-416" font-size="15px">&#952;</text>
</g>
</svg>
